<svg width="17" height="16" viewBox="0 0 17 16" fill="none" xmlns="http://www.w3.org/2000/svg">
<path d="M3.83414 15.9652V5.45349H0.564609V15.9652H3.83414ZM2.1818 4.04724C3.23648 4.04724 4.08023 3.16833 4.08023 2.11365C4.08023 1.09412 3.23648 0.250366 2.1818 0.250366C1.16226 0.250366 0.318515 1.09412 0.318515 2.11365C0.318515 3.16833 1.16226 4.04724 2.1818 4.04724ZM16.0334 15.9652H16.0685V10.1996C16.0685 7.38708 15.4357 5.2074 12.131 5.2074C10.549 5.2074 9.4943 6.0863 9.03726 6.8949H9.00211V5.45349H5.8732V15.9652H9.14273V10.7621C9.14273 9.39099 9.38883 8.09021 11.0763 8.09021C12.7638 8.09021 12.799 9.63708 12.799 10.8676V15.9652H16.0334Z" fill="#292F36"/>
</svg>
