<svg width="228" height="24" viewBox="0 0 228 24" fill="none" xmlns="http://www.w3.org/2000/svg">
<path d="M2.86 10.3C2.86 11.488 3.124 12.5367 3.652 13.446C4.19467 14.3553 4.89867 15.0667 5.764 15.58C6.62933 16.0933 7.568 16.35 8.58 16.35C9.31333 16.35 9.98067 16.2547 10.582 16.064C11.198 15.8733 11.7553 15.6093 12.254 15.272C12.7527 14.92 13.178 14.5167 13.53 14.062V16.526C12.8847 17.098 12.1807 17.5233 11.418 17.802C10.6553 18.0807 9.70933 18.22 8.58 18.22C7.50933 18.22 6.50467 18.0293 5.566 17.648C4.642 17.252 3.828 16.702 3.124 15.998C2.42 15.2793 1.87 14.436 1.474 13.468C1.078 12.5 0.88 11.444 0.88 10.3C0.88 9.156 1.078 8.1 1.474 7.132C1.87 6.164 2.42 5.328 3.124 4.624C3.828 3.90533 4.642 3.35533 5.566 2.974C6.50467 2.578 7.50933 2.38 8.58 2.38C9.70933 2.38 10.6553 2.51933 11.418 2.798C12.1807 3.07667 12.8847 3.502 13.53 4.074V6.538C13.178 6.08333 12.7527 5.68733 12.254 5.35C11.7553 4.998 11.198 4.72667 10.582 4.536C9.98067 4.34533 9.31333 4.25 8.58 4.25C7.568 4.25 6.62933 4.50667 5.764 5.02C4.89867 5.53333 4.19467 6.24467 3.652 7.154C3.124 8.04867 2.86 9.09733 2.86 10.3ZM16.0505 12.94C16.0505 11.9133 16.2779 11.004 16.7325 10.212C17.2019 9.42 17.8325 8.79667 18.6245 8.342C19.4165 7.88733 20.3039 7.66 21.2865 7.66C22.2839 7.66 23.1712 7.88733 23.9485 8.342C24.7405 8.79667 25.3639 9.42 25.8185 10.212C26.2879 11.004 26.5225 11.9133 26.5225 12.94C26.5225 13.952 26.2879 14.8613 25.8185 15.668C25.3639 16.46 24.7405 17.0833 23.9485 17.538C23.1712 17.9927 22.2839 18.22 21.2865 18.22C20.3039 18.22 19.4165 17.9927 18.6245 17.538C17.8325 17.0833 17.2019 16.46 16.7325 15.668C16.2779 14.8613 16.0505 13.952 16.0505 12.94ZM17.8325 12.94C17.8325 13.644 17.9792 14.2673 18.2725 14.81C18.5805 15.3527 18.9912 15.7853 19.5045 16.108C20.0325 16.416 20.6265 16.57 21.2865 16.57C21.9465 16.57 22.5332 16.416 23.0465 16.108C23.5745 15.7853 23.9852 15.3527 24.2785 14.81C24.5865 14.2673 24.7405 13.644 24.7405 12.94C24.7405 12.236 24.5865 11.6127 24.2785 11.07C23.9852 10.5127 23.5745 10.08 23.0465 9.772C22.5332 9.464 21.9465 9.31 21.2865 9.31C20.6265 9.31 20.0325 9.464 19.5045 9.772C18.9912 10.08 18.5805 10.5127 18.2725 11.07C17.9792 11.6127 17.8325 12.236 17.8325 12.94ZM30.8103 22.84H29.0503V7.88H30.8103V22.84ZM39.2803 12.94C39.2803 14.0253 39.053 14.964 38.5983 15.756C38.1436 16.548 37.535 17.1567 36.7723 17.582C36.0243 18.0073 35.1883 18.22 34.2643 18.22C33.4283 18.22 32.6876 18.0073 32.0423 17.582C31.4116 17.1567 30.913 16.548 30.5463 15.756C30.1943 14.964 30.0183 14.0253 30.0183 12.94C30.0183 11.84 30.1943 10.9013 30.5463 10.124C30.913 9.332 31.4116 8.72333 32.0423 8.298C32.6876 7.87267 33.4283 7.66 34.2643 7.66C35.1883 7.66 36.0243 7.87267 36.7723 8.298C37.535 8.72333 38.1436 9.332 38.5983 10.124C39.053 10.9013 39.2803 11.84 39.2803 12.94ZM37.4983 12.94C37.4983 12.1627 37.337 11.5027 37.0143 10.96C36.7063 10.4173 36.2883 10.0067 35.7603 9.728C35.247 9.44933 34.675 9.31 34.0443 9.31C33.531 9.31 33.025 9.44933 32.5263 9.728C32.0276 10.0067 31.617 10.4173 31.2943 10.96C30.9716 11.5027 30.8103 12.1627 30.8103 12.94C30.8103 13.7173 30.9716 14.3773 31.2943 14.92C31.617 15.4627 32.0276 15.8733 32.5263 16.152C33.025 16.4307 33.531 16.57 34.0443 16.57C34.675 16.57 35.247 16.4307 35.7603 16.152C36.2883 15.8733 36.7063 15.4627 37.0143 14.92C37.337 14.3773 37.4983 13.7173 37.4983 12.94ZM49.6349 7.88L43.0349 22.84H41.0549L43.8269 16.57L39.9549 7.88H42.0449L45.2569 15.8L44.5309 15.712L47.6549 7.88H49.6349ZM53.2744 7.88V18H51.5144V7.88H53.2744ZM56.3324 9.816C56.0977 9.64 55.885 9.51533 55.6944 9.442C55.5037 9.354 55.2617 9.31 54.9684 9.31C54.5284 9.31 54.1837 9.42 53.9344 9.64C53.685 9.86 53.509 10.1607 53.4064 10.542C53.3184 10.9233 53.2744 11.356 53.2744 11.84H52.4824C52.4824 11.0333 52.6217 10.322 52.9004 9.706C53.1937 9.07533 53.5677 8.57667 54.0224 8.21C54.477 7.84333 54.939 7.66 55.4084 7.66C55.775 7.66 56.1124 7.71133 56.4204 7.814C56.743 7.902 57.0364 8.08533 57.3004 8.364L56.3324 9.816ZM59.2754 3.7C59.2754 3.36267 59.3927 3.07667 59.6274 2.842C59.8767 2.60733 60.1627 2.49 60.4854 2.49C60.8227 2.49 61.1087 2.60733 61.3434 2.842C61.5781 3.07667 61.6954 3.36267 61.6954 3.7C61.6954 4.02267 61.5781 4.30867 61.3434 4.558C61.1087 4.79267 60.8227 4.91 60.4854 4.91C60.1627 4.91 59.8767 4.79267 59.6274 4.558C59.3927 4.30867 59.2754 4.02267 59.2754 3.7ZM59.6054 7.88H61.3654V18H59.6054V7.88ZM64.5282 18.66H66.3102C66.3102 19.144 66.4422 19.5913 66.7062 20.002C66.9702 20.4273 67.3442 20.7647 67.8282 21.014C68.3122 21.278 68.8842 21.41 69.5442 21.41C70.0576 21.41 70.5636 21.2853 71.0622 21.036C71.5609 20.7867 71.9716 20.3907 72.2942 19.848C72.6316 19.32 72.8002 18.6307 72.8002 17.78V7.88H74.5602V17.78C74.5602 18.9387 74.3182 19.9067 73.8342 20.684C73.3502 21.476 72.7269 22.07 71.9642 22.466C71.2016 22.862 70.3949 23.06 69.5442 23.06C68.5616 23.06 67.6889 22.8767 66.9262 22.51C66.1782 22.1433 65.5916 21.6227 65.1662 20.948C64.7409 20.288 64.5282 19.5253 64.5282 18.66ZM64.3302 12.94C64.3302 11.84 64.5576 10.9013 65.0122 10.124C65.4669 9.332 66.0756 8.72333 66.8382 8.298C67.6009 7.87267 68.4369 7.66 69.3462 7.66C70.1969 7.66 70.9376 7.87267 71.5682 8.298C72.1989 8.72333 72.6902 9.332 73.0422 10.124C73.4089 10.9013 73.5922 11.84 73.5922 12.94C73.5922 14.0253 73.4089 14.964 73.0422 15.756C72.6902 16.548 72.1989 17.1567 71.5682 17.582C70.9376 18.0073 70.1969 18.22 69.3462 18.22C68.4369 18.22 67.6009 18.0073 66.8382 17.582C66.0756 17.1567 65.4669 16.548 65.0122 15.756C64.5576 14.964 64.3302 14.0253 64.3302 12.94ZM66.1122 12.94C66.1122 13.7173 66.2662 14.3773 66.5742 14.92C66.8969 15.4627 67.3222 15.8733 67.8502 16.152C68.3782 16.4307 68.9502 16.57 69.5662 16.57C70.0796 16.57 70.5856 16.4307 71.0842 16.152C71.5829 15.8733 71.9936 15.4627 72.3162 14.92C72.6389 14.3773 72.8002 13.7173 72.8002 12.94C72.8002 12.3533 72.7049 11.84 72.5142 11.4C72.3236 10.9453 72.0669 10.564 71.7442 10.256C71.4362 9.948 71.0916 9.71333 70.7102 9.552C70.3289 9.39067 69.9476 9.31 69.5662 9.31C68.9502 9.31 68.3782 9.44933 67.8502 9.728C67.3222 10.0067 66.8969 10.4173 66.5742 10.96C66.2662 11.5027 66.1122 12.1627 66.1122 12.94ZM79.7371 0.839999V18H77.9771V0.839999H79.7371ZM84.4671 11.84C84.4671 11.004 84.2838 10.3733 83.9171 9.948C83.5651 9.52267 83.0298 9.31 82.3111 9.31C81.7978 9.31 81.3431 9.42 80.9471 9.64C80.5658 9.86 80.2651 10.1607 80.0451 10.542C79.8398 10.9233 79.7371 11.356 79.7371 11.84H79.1651C79.1651 11.0333 79.3191 10.322 79.6271 9.706C79.9351 9.07533 80.3531 8.57667 80.8811 8.21C81.4238 7.84333 82.0471 7.66 82.7511 7.66C83.4551 7.66 84.0638 7.80667 84.5771 8.1C85.1051 8.39333 85.5084 8.83333 85.7871 9.42C86.0804 10.0067 86.2271 10.74 86.2271 11.62V18H84.4671V11.84ZM88.2157 7.88H93.2757V9.53H88.2157V7.88ZM89.8657 4.36H91.6257V18H89.8657V4.36ZM105.685 10.3C105.685 11.0187 105.831 11.6493 106.125 12.192C106.433 12.7347 106.843 13.16 107.357 13.468C107.885 13.776 108.471 13.93 109.117 13.93C109.762 13.93 110.334 13.8053 110.833 13.556C111.346 13.3067 111.764 12.9767 112.087 12.566V14.04C111.705 14.3773 111.28 14.634 110.811 14.81C110.356 14.9713 109.791 15.052 109.117 15.052C108.266 15.052 107.489 14.8467 106.785 14.436C106.095 14.0253 105.538 13.4607 105.113 12.742C104.702 12.0233 104.497 11.2093 104.497 10.3C104.497 9.376 104.702 8.562 105.113 7.858C105.538 7.13933 106.095 6.57467 106.785 6.164C107.489 5.75333 108.266 5.548 109.117 5.548C109.791 5.548 110.356 5.636 110.811 5.812C111.28 5.97333 111.705 6.22267 112.087 6.56V8.034C111.764 7.62333 111.346 7.29333 110.833 7.044C110.334 6.79467 109.762 6.67 109.117 6.67C108.471 6.67 107.885 6.824 107.357 7.132C106.843 7.44 106.433 7.86533 106.125 8.408C105.831 8.95067 105.685 9.58133 105.685 10.3ZM102.517 10.3C102.517 11.2827 102.685 12.192 103.023 13.028C103.36 13.8493 103.829 14.568 104.431 15.184C105.047 15.8 105.758 16.2767 106.565 16.614C107.386 16.9513 108.273 17.12 109.227 17.12C110.18 17.12 111.06 16.9513 111.867 16.614C112.688 16.2767 113.399 15.8 114.001 15.184C114.617 14.568 115.093 13.8493 115.431 13.028C115.768 12.192 115.937 11.2827 115.937 10.3C115.937 9.31733 115.768 8.41533 115.431 7.594C115.093 6.758 114.617 6.032 114.001 5.416C113.399 4.8 112.688 4.32333 111.867 3.986C111.06 3.64867 110.18 3.48 109.227 3.48C108.273 3.48 107.386 3.64867 106.565 3.986C105.758 4.32333 105.047 4.8 104.431 5.416C103.829 6.032 103.36 6.758 103.023 7.594C102.685 8.41533 102.517 9.31733 102.517 10.3ZM101.307 10.3C101.307 9.156 101.505 8.1 101.901 7.132C102.311 6.164 102.869 5.328 103.573 4.624C104.291 3.90533 105.135 3.35533 106.103 2.974C107.071 2.578 108.112 2.38 109.227 2.38C110.356 2.38 111.397 2.578 112.351 2.974C113.319 3.35533 114.155 3.90533 114.859 4.624C115.577 5.328 116.135 6.164 116.531 7.132C116.941 8.1 117.147 9.156 117.147 10.3C117.147 11.444 116.941 12.5 116.531 13.468C116.135 14.436 115.577 15.2793 114.859 15.998C114.155 16.702 113.319 17.252 112.351 17.648C111.397 18.0293 110.356 18.22 109.227 18.22C108.112 18.22 107.071 18.0293 106.103 17.648C105.135 17.252 104.291 16.702 103.573 15.998C102.869 15.2793 102.311 14.436 101.901 13.468C101.505 12.5 101.307 11.444 101.307 10.3ZM127.39 13.336C127.742 13.952 128.109 14.4947 128.49 14.964C128.886 15.4333 129.326 15.8 129.81 16.064C130.294 16.328 130.844 16.46 131.46 16.46C132.281 16.46 132.941 16.2327 133.44 15.778C133.939 15.3233 134.188 14.744 134.188 14.04C134.188 13.3507 134.027 12.8007 133.704 12.39C133.381 11.9793 132.956 11.6493 132.428 11.4C131.915 11.136 131.365 10.9013 130.778 10.696C130.397 10.564 129.971 10.3953 129.502 10.19C129.033 9.97 128.585 9.69867 128.16 9.376C127.735 9.03867 127.383 8.628 127.104 8.144C126.84 7.66 126.708 7.066 126.708 6.362C126.708 5.59933 126.899 4.91733 127.28 4.316C127.661 3.71467 128.189 3.24533 128.864 2.908C129.539 2.556 130.309 2.38 131.174 2.38C132.01 2.38 132.736 2.54133 133.352 2.864C133.983 3.172 134.518 3.57533 134.958 4.074C135.398 4.558 135.743 5.07133 135.992 5.614L134.386 6.538C134.195 6.15667 133.953 5.78267 133.66 5.416C133.367 5.04933 133.007 4.74867 132.582 4.514C132.171 4.27933 131.665 4.162 131.064 4.162C130.228 4.162 129.619 4.36733 129.238 4.778C128.857 5.174 128.666 5.62133 128.666 6.12C128.666 6.54533 128.776 6.94133 128.996 7.308C129.216 7.66 129.583 7.99733 130.096 8.32C130.624 8.628 131.335 8.936 132.23 9.244C132.641 9.39067 133.073 9.58133 133.528 9.816C133.983 10.0507 134.401 10.3513 134.782 10.718C135.178 11.07 135.501 11.5027 135.75 12.016C135.999 12.5147 136.124 13.116 136.124 13.82C136.124 14.4947 135.992 15.1033 135.728 15.646C135.479 16.1887 135.127 16.6507 134.672 17.032C134.232 17.4133 133.726 17.7067 133.154 17.912C132.597 18.1173 132.01 18.22 131.394 18.22C130.558 18.22 129.781 18.044 129.062 17.692C128.358 17.3253 127.735 16.8487 127.192 16.262C126.664 15.6607 126.231 15.0227 125.894 14.348L127.39 13.336ZM140.125 18V16.24H147.891V18H140.125ZM140.125 4.36V2.6H147.891V4.36H140.125ZM140.125 10.52V8.76H147.451V10.52H140.125ZM139.091 2.6H140.961V18H139.091V2.6ZM151.406 2.6H153.276V16.24H159.326V18H151.406V2.6ZM162.565 10.52V8.76H173.125V10.52H162.565ZM171.871 2.6H173.741V18H171.871V2.6ZM161.531 2.6H163.401V18H161.531V2.6ZM178.577 10.3C178.577 11.4587 178.827 12.4927 179.325 13.402C179.839 14.3113 180.535 15.03 181.415 15.558C182.295 16.086 183.293 16.35 184.407 16.35C185.537 16.35 186.534 16.086 187.399 15.558C188.279 15.03 188.969 14.3113 189.467 13.402C189.981 12.4927 190.237 11.4587 190.237 10.3C190.237 9.14133 189.981 8.10733 189.467 7.198C188.969 6.28867 188.279 5.57 187.399 5.042C186.534 4.514 185.537 4.25 184.407 4.25C183.293 4.25 182.295 4.514 181.415 5.042C180.535 5.57 179.839 6.28867 179.325 7.198C178.827 8.10733 178.577 9.14133 178.577 10.3ZM176.597 10.3C176.597 9.17067 176.788 8.12933 177.169 7.176C177.565 6.208 178.115 5.372 178.819 4.668C179.523 3.94933 180.352 3.392 181.305 2.996C182.259 2.58533 183.293 2.38 184.407 2.38C185.537 2.38 186.571 2.58533 187.509 2.996C188.463 3.392 189.291 3.94933 189.995 4.668C190.699 5.372 191.242 6.208 191.623 7.176C192.019 8.12933 192.217 9.17067 192.217 10.3C192.217 11.4147 192.019 12.456 191.623 13.424C191.242 14.392 190.699 15.2353 189.995 15.954C189.291 16.658 188.463 17.2153 187.509 17.626C186.571 18.022 185.537 18.22 184.407 18.22C183.293 18.22 182.259 18.022 181.305 17.626C180.352 17.2153 179.523 16.658 178.819 15.954C178.115 15.2353 177.565 14.392 177.169 13.424C176.788 12.456 176.597 11.4147 176.597 10.3ZM206.738 2.6H208.608V18.77L196.948 6.538V18H195.078V1.83L206.738 14.062V2.6ZM213.457 10.3C213.457 11.4587 213.706 12.4927 214.205 13.402C214.718 14.3113 215.415 15.03 216.295 15.558C217.175 16.086 218.172 16.35 219.287 16.35C220.416 16.35 221.413 16.086 222.279 15.558C223.159 15.03 223.848 14.3113 224.347 13.402C224.86 12.4927 225.117 11.4587 225.117 10.3C225.117 9.14133 224.86 8.10733 224.347 7.198C223.848 6.28867 223.159 5.57 222.279 5.042C221.413 4.514 220.416 4.25 219.287 4.25C218.172 4.25 217.175 4.514 216.295 5.042C215.415 5.57 214.718 6.28867 214.205 7.198C213.706 8.10733 213.457 9.14133 213.457 10.3ZM211.477 10.3C211.477 9.17067 211.667 8.12933 212.049 7.176C212.445 6.208 212.995 5.372 213.699 4.668C214.403 3.94933 215.231 3.392 216.185 2.996C217.138 2.58533 218.172 2.38 219.287 2.38C220.416 2.38 221.45 2.58533 222.389 2.996C223.342 3.392 224.171 3.94933 224.875 4.668C225.579 5.372 226.121 6.208 226.503 7.176C226.899 8.12933 227.097 9.17067 227.097 10.3C227.097 11.4147 226.899 12.456 226.503 13.424C226.121 14.392 225.579 15.2353 224.875 15.954C224.171 16.658 223.342 17.2153 222.389 17.626C221.45 18.022 220.416 18.22 219.287 18.22C218.172 18.22 217.138 18.022 216.185 17.626C215.231 17.2153 214.403 16.658 213.699 15.954C212.995 15.2353 212.445 14.392 212.049 13.424C211.667 12.456 211.477 11.4147 211.477 10.3Z" fill="#4D5053"/>
</svg>
